HIERARCHY
ROOT Hips
{
	OFFSET 0.000000 0.000000 0.000000
	CHANNELS 6 Xposition Yposition Zposition Zrotation Yrotation Xrotation 
	JOINT LHipJoint
	{
		OFFSET 0.000000 0.000000 0.000000
		CHANNELS 3 Zrotation Yrotation Xrotation
		JOINT LeftUpLeg
		{
			OFFSET 1.363060 -1.794630 0.839290
			CHANNELS 3 Zrotation Yrotation Xrotation
			JOINT LeftLeg
			{
				OFFSET 2.448110 -6.726130 0.000000
				CHANNELS 3 Zrotation Yrotation Xrotation
				JOINT LeftFoot
				{
					OFFSET 2.562200 -7.039590 0.000000
					CHANNELS 3 Zrotation Yrotation Xrotation
					JOINT LeftToeBase
					{
						OFFSET 0.157640 -0.433110 2.322550
						CHANNELS 3 Zrotation Yrotation Xrotation
						End Site
						{
							OFFSET 0.000000 0.000000 0.000000
						}
					}
				}
			}
		}
	}
	JOINT RHipJoint
	{
		OFFSET 0.000000 0.000000 0.000000
		CHANNELS 3 Zrotation Yrotation Xrotation
		JOINT RightUpLeg
		{
			OFFSET -1.305520 -1.794630 0.839290
			CHANNELS 3 Zrotation Yrotation Xrotation
			JOINT RightLeg
			{
				OFFSET -2.542530 -6.985550 0.000000
				CHANNELS 3 Zrotation Yrotation Xrotation
				JOINT RightFoot
				{
					OFFSET -2.568260 -7.056230 0.000000
					CHANNELS 3 Zrotation Yrotation Xrotation
					JOINT RightToeBase
					{
						OFFSET -0.164730 -0.452590 2.363150
						CHANNELS 3 Zrotation Yrotation Xrotation
						End Site
						{
							OFFSET 0.000000 0.000000 0.000000
						}
					}
				}
			}
		}
	}
}
MOTION
Frames: 14
Frame Time: 0.008333
-9.836581 18.123538 -1.931252 -158.375880 86.220946 -137.277525 -13.439946 4.592712 2.464198 -3.548821 10.673392 -8.182424 -1.611454 0.303195 4.875901 0.168591 -5.328225 20.425007 -2.361100 0.000000 -57.605301 8.838921 -0.429525 7.431641 -7.998533 19.588145 -43.862709 -1.525775 -2.213443 51.408977 -0.708463 -1.730891 5.927588 -0.494900 -0.000001 -53.778500
-9.611715 18.234269 -1.906555 -156.543982 86.595247 -135.494223 -13.617174 4.673559 2.273717 -3.124285 11.673772 -7.610536 -1.558067 0.368702 4.632253 0.272686 -5.556816 22.452678 -2.690800 -0.000000 -55.190400 8.575970 -0.594087 7.667587 -7.782648 20.534483 -43.461805 -1.351765 -2.063450 47.766501 -0.582027 -1.205799 6.906660 -0.435700 0.000000 -54.021000
-9.389703 18.333645 -1.880293 -155.038742 86.981415 -134.034836 -13.733101 4.740909 2.120969 -2.791038 12.288721 -7.040304 -1.480708 0.426697 4.726872 0.383527 -5.137587 23.813393 -2.660000 -0.000000 -52.494100 8.339783 -0.761930 7.860857 -7.529665 21.309574 -43.001682 -1.155714 -1.923360 44.091977 -0.446245 -0.676445 7.803977 -0.362700 0.000000 -54.077900
-9.170354 18.421027 -1.852640 -153.753866 87.401788 -132.798067 -13.788176 4.797771 2.003582 -2.568691 12.511540 -6.429417 -1.376134 0.479381 5.112145 0.498906 -4.053420 24.574546 -2.237301 0.000000 -49.764300 8.130664 -0.928302 8.009863 -7.232867 21.920111 -42.479757 -0.932769 -1.789364 40.415037 -0.302917 -0.145979 8.588446 -0.277300 -0.000000 -53.991900
-8.953285 18.495572 -1.823766 -152.472748 87.868794 -131.573360 -13.790070 4.843193 1.911547 -2.463562 12.423937 -5.793081 -1.249273 0.528279 5.805412 0.618659 -2.430547 24.790588 -1.489800 -0.000000 -47.163100 7.946003 -1.091811 8.123192 -6.882200 22.375571 -41.910683 -0.680218 -1.657010 36.778927 -0.153298 0.391187 9.232121 -0.179101 -0.000000 -53.832600
-8.738263 18.556781 -1.793633 -151.041254 88.396285 -130.215679 -13.738687 4.876810 1.834799 -2.496426 12.088998 -5.124728 -1.106515 0.573961 6.789909 0.746764 -0.407096 24.556247 -0.514100 -0.000000 -44.822100 7.791644 -1.246036 8.201700 -6.477592 22.664686 -41.305508 -0.398899 -1.523326 33.240066 0.003851 0.966586 9.711259 -0.058900 -0.000001 -53.685600
-8.524726 18.604283 -1.762694 -148.895320 88.966417 -128.166458 -13.645444 4.890300 1.755909 -2.645630 11.647327 -4.471453 -0.957657 0.616456 8.101167 0.881031 1.779083 23.951410 0.538600 -0.000000 -42.795100 7.664187 -1.396472 8.256213 -5.995615 22.785402 -40.687886 -0.091377 -1.387446 29.849526 0.167733 1.600965 10.024795 0.089501 0.000000 -53.660000
-8.312368 18.638047 -1.730969 -145.124433 89.548712 -124.523750 -13.503231 4.875947 1.664234 -2.905695 11.173916 -3.838807 -0.807379 0.654067 9.716744 1.018015 3.963846 23.095837 1.560600 0.000000 -41.158500 7.575829 -1.548587 8.289429 -5.421099 22.701983 -40.080524 0.234832 -1.254525 26.671064 0.339074 2.338334 10.181193 0.281300 -0.000000 -53.874000
-8.100796 18.658294 -1.698764 43.506995 89.990228 63.941100 -13.266629 4.805465 1.540740 -3.220485 10.754605 -3.246625 -0.652679 0.679025 11.641823 1.143137 5.968273 22.093146 2.456200 -0.000000 -39.930400 7.564448 -1.730348 8.318693 -4.713189 22.374033 -39.513912 0.568269 -1.142289 23.748751 0.510502 3.195667 10.208678 0.526600 -0.000000 -54.446800
-7.889687 18.665467 -1.666360 -106.633966 89.784552 -86.400408 -12.547266 4.658197 1.337120 -3.386017 10.432588 -2.698690 -0.498639 0.684945 13.890395 1.237781 7.649443 21.019920 3.167400 -0.000000 -39.097600 7.957084 -1.892891 8.406578 -3.713084 21.807582 -39.035072 0.872603 -1.093577 21.083228 0.651478 4.128798 10.159519 0.829400 -0.000000 -55.465900
-7.678800 18.660271 -1.633843 -32.232022 87.181494 -12.114078 -11.572468 5.355112 1.238100 -3.671779 10.614254 -2.476150 -0.713015 0.998769 16.094022 1.505075 9.250776 19.894507 3.689600 0.000000 -38.654700 8.867545 -0.932935 8.243625 -2.246950 21.609232 -38.502131 1.148336 -0.812422 19.030945 0.933892 5.449473 10.349954 1.192300 -0.000000 -56.944900
-7.467904 18.643483 -1.601900 -6.104327 85.605208 13.762736 -12.253692 5.603951 1.193911 -4.431212 10.947856 -2.339190 -0.706255 1.172416 18.540250 1.657338 10.372843 18.938363 4.004800 -0.000001 -38.437500 8.277136 -0.880704 7.948159 -1.180026 20.717377 -38.005740 1.547461 -0.572209 17.343731 1.245219 6.927207 10.465819 1.592500 -0.000000 -58.826700
-7.256912 18.615921 -1.570200 1.444082 84.652233 21.021061 -12.406947 5.625311 1.053748 -4.873103 11.310383 -2.197374 -0.627601 1.273271 21.219459 1.727803 11.094616 18.100627 4.175100 -0.000000 -38.482400 8.077207 -1.020982 7.759827 0.210011 19.495799 -37.646609 1.894672 -0.473362 15.889473 1.472306 8.301687 10.622982 2.024900 -0.000001 -60.928000
-7.045839 18.578296 -1.538505 4.523173 83.689491 23.800972 -12.408250 5.671802 0.902090 -5.181370 11.794852 -2.136197 -0.562867 1.389882 23.973270 1.780419 11.560790 17.386589 4.239199 0.000000 -38.685900 8.033582 -1.119316 7.555519 1.842242 18.135690 -37.346943 2.209191 -0.410668 14.763602 1.671994 9.602328 10.914789 2.466700 0.000000 -63.026400
